<mxfile host="Electron" agent="Mozilla/5.0 (Windows NT 10.0; Win64; x64) AppleWebKit/537.36 (KHTML, like Gecko) draw.io/24.7.5 Chrome/126.0.6478.183 Electron/31.3.0 Safari/537.36" version="24.7.5">
  <diagram name="Page-1" id="m3Kgad-uBVj2aAU8IxAz">
    <mxGraphModel dx="1418" dy="820" grid="1" gridSize="10" guides="1" tooltips="1" connect="1" arrows="1" fold="1" page="1" pageScale="1" pageWidth="1169" pageHeight="827" math="0" shadow="0">
      <root>
        <mxCell id="0" />
        <mxCell id="1" parent="0" />
        <mxCell id="_XCqybRmd7cWEvjCYS1G-1" value="Dynamic Network Construction" style="rounded=0;whiteSpace=wrap;html=1;labelPosition=center;verticalLabelPosition=top;align=center;verticalAlign=bottom;fillColor=#bac8d3;strokeColor=#23445d;" vertex="1" parent="1">
          <mxGeometry x="158.24" y="120" width="901.76" height="390" as="geometry" />
        </mxCell>
        <mxCell id="_XCqybRmd7cWEvjCYS1G-5" value="Iterative Loop For Embedding Matrix Construction" style="rounded=0;whiteSpace=wrap;html=1;labelPosition=center;verticalLabelPosition=top;align=center;verticalAlign=bottom;fillColor=#fad9d5;strokeColor=#ae4132;" vertex="1" parent="1">
          <mxGeometry x="378.24" y="220" width="660" height="260" as="geometry" />
        </mxCell>
        <mxCell id="_XCqybRmd7cWEvjCYS1G-2" value="Initial Construction" style="rounded=0;whiteSpace=wrap;html=1;fillColor=#fad7ac;strokeColor=#b46504;" vertex="1" parent="1">
          <mxGeometry x="170" y="270" width="130" height="130" as="geometry" />
        </mxCell>
        <mxCell id="_XCqybRmd7cWEvjCYS1G-3" value="Random Walks" style="rounded=0;whiteSpace=wrap;html=1;fillColor=#b0e3e6;strokeColor=#0e8088;" vertex="1" parent="1">
          <mxGeometry x="400" y="270" width="130" height="130" as="geometry" />
        </mxCell>
        <mxCell id="_XCqybRmd7cWEvjCYS1G-4" value="Negative Sampling Calculation" style="rounded=0;whiteSpace=wrap;html=1;fillColor=#b0e3e6;strokeColor=#0e8088;" vertex="1" parent="1">
          <mxGeometry x="558.24" y="270" width="130" height="130" as="geometry" />
        </mxCell>
        <mxCell id="_XCqybRmd7cWEvjCYS1G-6" value="" style="endArrow=classic;html=1;rounded=0;entryX=-0.002;entryY=0.308;entryDx=0;entryDy=0;entryPerimeter=0;" edge="1" parent="1">
          <mxGeometry width="50" height="50" relative="1" as="geometry">
            <mxPoint x="20" y="280.01" as="sourcePoint" />
            <mxPoint x="158.24" y="280" as="targetPoint" />
          </mxGeometry>
        </mxCell>
        <mxCell id="_XCqybRmd7cWEvjCYS1G-11" value="&lt;span style=&quot;font-size:12.0pt;mso-bidi-font-size:11.0pt;line-height:107%;&lt;br/&gt;font-family:&amp;quot;Times New Roman&amp;quot;,serif;mso-ascii-theme-font:major-bidi;mso-fareast-font-family:&lt;br/&gt;Calibri;mso-hansi-theme-font:major-bidi;mso-bidi-font-family:Calibri;&lt;br/&gt;mso-font-kerning:0pt;mso-ligatures:none;mso-ansi-language:EN-US;mso-fareast-language:&lt;br/&gt;#0C00;mso-bidi-language:AR-SA&quot; lang=&quot;EN-US&quot;&gt;&lt;br/&gt; &lt;br/&gt; &lt;br/&gt;  &lt;br/&gt;  &lt;br/&gt;  &lt;br/&gt;  &lt;br/&gt;  &lt;br/&gt;  &lt;br/&gt;  &lt;br/&gt;  &lt;br/&gt;  &lt;br/&gt;  &lt;br/&gt;  &lt;br/&gt;  &lt;br/&gt; &lt;br/&gt; &lt;br/&gt; &lt;br/&gt;&lt;br/&gt; &lt;br/&gt;&lt;/span&gt;" style="edgeLabel;html=1;align=center;verticalAlign=middle;resizable=0;points=[];" vertex="1" connectable="0" parent="_XCqybRmd7cWEvjCYS1G-6">
          <mxGeometry x="-0.033" y="-1" relative="1" as="geometry">
            <mxPoint as="offset" />
          </mxGeometry>
        </mxCell>
        <mxCell id="_XCqybRmd7cWEvjCYS1G-12" value="{G&lt;sub&gt;1&lt;/sub&gt;, G&lt;sub&gt;2&lt;/sub&gt;, ...,G&lt;sub&gt;T&lt;/sub&gt;}" style="edgeLabel;html=1;align=center;verticalAlign=middle;resizable=0;points=[];" vertex="1" connectable="0" parent="_XCqybRmd7cWEvjCYS1G-6">
          <mxGeometry x="-0.0793" y="-1" relative="1" as="geometry">
            <mxPoint x="-5" y="-11" as="offset" />
          </mxGeometry>
        </mxCell>
        <mxCell id="_XCqybRmd7cWEvjCYS1G-7" value="" style="endArrow=classic;html=1;rounded=0;entryX=-0.002;entryY=0.308;entryDx=0;entryDy=0;entryPerimeter=0;" edge="1" parent="1">
          <mxGeometry width="50" height="50" relative="1" as="geometry">
            <mxPoint x="20.000000000000007" y="310.01" as="sourcePoint" />
            <mxPoint x="158.24" y="310" as="targetPoint" />
          </mxGeometry>
        </mxCell>
        <mxCell id="_XCqybRmd7cWEvjCYS1G-13" value="Random Walk Parameters" style="edgeLabel;html=1;align=center;verticalAlign=middle;resizable=0;points=[];" vertex="1" connectable="0" parent="_XCqybRmd7cWEvjCYS1G-7">
          <mxGeometry x="-0.1892" y="2" relative="1" as="geometry">
            <mxPoint x="12" y="-8" as="offset" />
          </mxGeometry>
        </mxCell>
        <mxCell id="_XCqybRmd7cWEvjCYS1G-8" value="" style="endArrow=classic;html=1;rounded=0;entryX=-0.002;entryY=0.308;entryDx=0;entryDy=0;entryPerimeter=0;" edge="1" parent="1">
          <mxGeometry width="50" height="50" relative="1" as="geometry">
            <mxPoint x="20.000000000000007" y="340.01" as="sourcePoint" />
            <mxPoint x="158.24" y="340" as="targetPoint" />
          </mxGeometry>
        </mxCell>
        <mxCell id="_XCqybRmd7cWEvjCYS1G-14" value="Enbedding Size (D)" style="edgeLabel;html=1;align=center;verticalAlign=middle;resizable=0;points=[];" vertex="1" connectable="0" parent="_XCqybRmd7cWEvjCYS1G-8">
          <mxGeometry x="0.1522" relative="1" as="geometry">
            <mxPoint x="-11" y="-10" as="offset" />
          </mxGeometry>
        </mxCell>
        <mxCell id="_XCqybRmd7cWEvjCYS1G-9" value="" style="endArrow=classic;html=1;rounded=0;entryX=-0.002;entryY=0.308;entryDx=0;entryDy=0;entryPerimeter=0;" edge="1" parent="1">
          <mxGeometry width="50" height="50" relative="1" as="geometry">
            <mxPoint x="20.000000000000007" y="370.01" as="sourcePoint" />
            <mxPoint x="158.24" y="370" as="targetPoint" />
          </mxGeometry>
        </mxCell>
        <mxCell id="_XCqybRmd7cWEvjCYS1G-15" value="Context Size" style="edgeLabel;html=1;align=center;verticalAlign=middle;resizable=0;points=[];" vertex="1" connectable="0" parent="_XCqybRmd7cWEvjCYS1G-9">
          <mxGeometry x="-0.4207" y="-2" relative="1" as="geometry">
            <mxPoint x="28" y="-12" as="offset" />
          </mxGeometry>
        </mxCell>
        <mxCell id="_XCqybRmd7cWEvjCYS1G-10" value="" style="endArrow=classic;html=1;rounded=0;entryX=-0.002;entryY=0.308;entryDx=0;entryDy=0;entryPerimeter=0;" edge="1" parent="1">
          <mxGeometry width="50" height="50" relative="1" as="geometry">
            <mxPoint x="20.000000000000007" y="399.81" as="sourcePoint" />
            <mxPoint x="158.24" y="399.8" as="targetPoint" />
          </mxGeometry>
        </mxCell>
        <mxCell id="_XCqybRmd7cWEvjCYS1G-16" value="Neggative Sampling Size (ns)" style="edgeLabel;html=1;align=center;verticalAlign=middle;resizable=0;points=[];" vertex="1" connectable="0" parent="_XCqybRmd7cWEvjCYS1G-10">
          <mxGeometry x="0.0365" y="2" relative="1" as="geometry">
            <mxPoint x="-13" y="-8" as="offset" />
          </mxGeometry>
        </mxCell>
        <mxCell id="_XCqybRmd7cWEvjCYS1G-17" value="Loss Optimization" style="rounded=0;whiteSpace=wrap;html=1;fillColor=#b0e3e6;strokeColor=#0e8088;" vertex="1" parent="1">
          <mxGeometry x="710" y="270" width="130" height="130" as="geometry" />
        </mxCell>
        <mxCell id="_XCqybRmd7cWEvjCYS1G-18" value="Embedding Matrix and Context Matrix Update" style="rounded=0;whiteSpace=wrap;html=1;fillColor=#b0e3e6;strokeColor=#0e8088;" vertex="1" parent="1">
          <mxGeometry x="868.24" y="270" width="135" height="130" as="geometry" />
        </mxCell>
        <mxCell id="_XCqybRmd7cWEvjCYS1G-19" value="" style="endArrow=classic;html=1;rounded=0;exitX=1;exitY=0.54;exitDx=0;exitDy=0;exitPerimeter=0;" edge="1" parent="1" source="_XCqybRmd7cWEvjCYS1G-2">
          <mxGeometry width="50" height="50" relative="1" as="geometry">
            <mxPoint x="318.24" y="340.01" as="sourcePoint" />
            <mxPoint x="380" y="340" as="targetPoint" />
          </mxGeometry>
        </mxCell>
        <mxCell id="_XCqybRmd7cWEvjCYS1G-20" value="&lt;span style=&quot;font-size:12.0pt;mso-bidi-font-size:11.0pt;line-height:107%;&lt;br/&gt;font-family:&amp;quot;Times New Roman&amp;quot;,serif;mso-ascii-theme-font:major-bidi;mso-fareast-font-family:&lt;br/&gt;Calibri;mso-hansi-theme-font:major-bidi;mso-bidi-font-family:Calibri;&lt;br/&gt;mso-font-kerning:0pt;mso-ligatures:none;mso-ansi-language:EN-US;mso-fareast-language:&lt;br/&gt;#0C00;mso-bidi-language:AR-SA&quot; lang=&quot;EN-US&quot;&gt;&lt;br/&gt; &lt;br/&gt; &lt;br/&gt;  &lt;br/&gt;  &lt;br/&gt;  &lt;br/&gt;  &lt;br/&gt;  &lt;br/&gt;  &lt;br/&gt;  &lt;br/&gt;  &lt;br/&gt;  &lt;br/&gt;  &lt;br/&gt;  &lt;br/&gt;  &lt;br/&gt; &lt;br/&gt; &lt;br/&gt; &lt;br/&gt;&lt;br/&gt; &lt;br/&gt;&lt;/span&gt;" style="edgeLabel;html=1;align=center;verticalAlign=middle;resizable=0;points=[];" vertex="1" connectable="0" parent="_XCqybRmd7cWEvjCYS1G-19">
          <mxGeometry x="-0.033" y="-1" relative="1" as="geometry">
            <mxPoint as="offset" />
          </mxGeometry>
        </mxCell>
        <mxCell id="_XCqybRmd7cWEvjCYS1G-21" value="fixed Graphs" style="edgeLabel;html=1;align=center;verticalAlign=middle;resizable=0;points=[];fontColor=none;noLabel=1;" vertex="1" connectable="0" parent="_XCqybRmd7cWEvjCYS1G-19">
          <mxGeometry x="-0.0793" y="-1" relative="1" as="geometry">
            <mxPoint x="-2" y="19" as="offset" />
          </mxGeometry>
        </mxCell>
        <mxCell id="_XCqybRmd7cWEvjCYS1G-23" value="" style="curved=1;endArrow=classic;html=1;rounded=0;exitX=0.75;exitY=1;exitDx=0;exitDy=0;entryX=0.25;entryY=1;entryDx=0;entryDy=0;" edge="1" parent="1" source="_XCqybRmd7cWEvjCYS1G-3" target="_XCqybRmd7cWEvjCYS1G-4">
          <mxGeometry width="50" height="50" relative="1" as="geometry">
            <mxPoint x="515" y="450" as="sourcePoint" />
            <mxPoint x="565" y="400" as="targetPoint" />
            <Array as="points">
              <mxPoint x="520" y="420" />
              <mxPoint x="550" y="430" />
              <mxPoint x="570" y="430" />
              <mxPoint x="590" y="420" />
            </Array>
          </mxGeometry>
        </mxCell>
        <mxCell id="_XCqybRmd7cWEvjCYS1G-26" value="Node Walks Sequences" style="edgeLabel;html=1;align=center;verticalAlign=middle;resizable=0;points=[];fontColor=none;noLabel=1;" vertex="1" connectable="0" parent="_XCqybRmd7cWEvjCYS1G-23">
          <mxGeometry x="0.2123" y="-1" relative="1" as="geometry">
            <mxPoint x="-5" y="9" as="offset" />
          </mxGeometry>
        </mxCell>
        <mxCell id="_XCqybRmd7cWEvjCYS1G-24" value="" style="curved=1;endArrow=classic;html=1;rounded=0;exitX=0.75;exitY=1;exitDx=0;exitDy=0;entryX=0.25;entryY=1;entryDx=0;entryDy=0;" edge="1" parent="1">
          <mxGeometry width="50" height="50" relative="1" as="geometry">
            <mxPoint x="640" y="400" as="sourcePoint" />
            <mxPoint x="733" y="400" as="targetPoint" />
            <Array as="points">
              <mxPoint x="662" y="420" />
              <mxPoint x="692" y="430" />
              <mxPoint x="712" y="430" />
              <mxPoint x="732" y="420" />
            </Array>
          </mxGeometry>
        </mxCell>
        <mxCell id="_XCqybRmd7cWEvjCYS1G-27" value="Loss Values" style="edgeLabel;html=1;align=center;verticalAlign=middle;resizable=0;points=[];fontColor=none;noLabel=1;" vertex="1" connectable="0" parent="_XCqybRmd7cWEvjCYS1G-24">
          <mxGeometry x="-0.1796" relative="1" as="geometry">
            <mxPoint x="18" y="13" as="offset" />
          </mxGeometry>
        </mxCell>
        <mxCell id="_XCqybRmd7cWEvjCYS1G-25" value="" style="curved=1;endArrow=classic;html=1;rounded=0;exitX=0.75;exitY=1;exitDx=0;exitDy=0;entryX=0.25;entryY=1;entryDx=0;entryDy=0;" edge="1" parent="1">
          <mxGeometry width="50" height="50" relative="1" as="geometry">
            <mxPoint x="790" y="400" as="sourcePoint" />
            <mxPoint x="883" y="400" as="targetPoint" />
            <Array as="points">
              <mxPoint x="812" y="420" />
              <mxPoint x="842" y="430" />
              <mxPoint x="862" y="430" />
              <mxPoint x="882" y="420" />
            </Array>
          </mxGeometry>
        </mxCell>
        <mxCell id="_XCqybRmd7cWEvjCYS1G-28" value="Updated Loss Values" style="edgeLabel;html=1;align=center;verticalAlign=middle;resizable=0;points=[];fontColor=none;noLabel=1;" vertex="1" connectable="0" parent="_XCqybRmd7cWEvjCYS1G-25">
          <mxGeometry x="-0.0688" y="2" relative="1" as="geometry">
            <mxPoint x="1" y="23" as="offset" />
          </mxGeometry>
        </mxCell>
        <mxCell id="_XCqybRmd7cWEvjCYS1G-31" value="" style="endArrow=classic;html=1;rounded=0;exitX=1;exitY=0.54;exitDx=0;exitDy=0;exitPerimeter=0;" edge="1" parent="1">
          <mxGeometry width="50" height="50" relative="1" as="geometry">
            <mxPoint x="1060" y="314.76" as="sourcePoint" />
            <mxPoint x="1140" y="314.76" as="targetPoint" />
          </mxGeometry>
        </mxCell>
        <mxCell id="_XCqybRmd7cWEvjCYS1G-32" value="&lt;span style=&quot;font-size:12.0pt;mso-bidi-font-size:11.0pt;line-height:107%;&lt;br/&gt;font-family:&amp;quot;Times New Roman&amp;quot;,serif;mso-ascii-theme-font:major-bidi;mso-fareast-font-family:&lt;br/&gt;Calibri;mso-hansi-theme-font:major-bidi;mso-bidi-font-family:Calibri;&lt;br/&gt;mso-font-kerning:0pt;mso-ligatures:none;mso-ansi-language:EN-US;mso-fareast-language:&lt;br/&gt;#0C00;mso-bidi-language:AR-SA&quot; lang=&quot;EN-US&quot;&gt;&lt;br/&gt; &lt;br/&gt; &lt;br/&gt;  &lt;br/&gt;  &lt;br/&gt;  &lt;br/&gt;  &lt;br/&gt;  &lt;br/&gt;  &lt;br/&gt;  &lt;br/&gt;  &lt;br/&gt;  &lt;br/&gt;  &lt;br/&gt;  &lt;br/&gt;  &lt;br/&gt; &lt;br/&gt; &lt;br/&gt; &lt;br/&gt;&lt;br/&gt; &lt;br/&gt;&lt;/span&gt;" style="edgeLabel;html=1;align=center;verticalAlign=middle;resizable=0;points=[];" vertex="1" connectable="0" parent="_XCqybRmd7cWEvjCYS1G-31">
          <mxGeometry x="-0.033" y="-1" relative="1" as="geometry">
            <mxPoint as="offset" />
          </mxGeometry>
        </mxCell>
        <mxCell id="_XCqybRmd7cWEvjCYS1G-33" value="Matrix and Contexts&lt;br&gt;Embedding" style="edgeLabel;html=1;align=center;verticalAlign=middle;resizable=0;points=[];" vertex="1" connectable="0" parent="_XCqybRmd7cWEvjCYS1G-31">
          <mxGeometry x="-0.0793" y="-1" relative="1" as="geometry">
            <mxPoint x="23" y="24" as="offset" />
          </mxGeometry>
        </mxCell>
        <mxCell id="_XCqybRmd7cWEvjCYS1G-34" value="" style="curved=1;endArrow=classic;html=1;rounded=0;exitX=0.999;exitY=0.077;exitDx=0;exitDy=0;entryX=0.945;entryY=0.007;entryDx=0;entryDy=0;entryPerimeter=0;exitPerimeter=0;" edge="1" parent="1" source="_XCqybRmd7cWEvjCYS1G-5" target="_XCqybRmd7cWEvjCYS1G-5">
          <mxGeometry width="50" height="50" relative="1" as="geometry">
            <mxPoint x="940" y="150" as="sourcePoint" />
            <mxPoint x="1033" y="150" as="targetPoint" />
            <Array as="points">
              <mxPoint x="1050" y="220" />
              <mxPoint x="1038" y="180" />
              <mxPoint x="1020" y="170" />
              <mxPoint x="1010" y="180" />
            </Array>
          </mxGeometry>
        </mxCell>
        <mxCell id="_XCqybRmd7cWEvjCYS1G-35" value="For each Graph" style="edgeLabel;html=1;align=center;verticalAlign=middle;resizable=0;points=[];fontColor=none;noLabel=1;" vertex="1" connectable="0" parent="_XCqybRmd7cWEvjCYS1G-34">
          <mxGeometry x="-0.0688" y="2" relative="1" as="geometry">
            <mxPoint x="-54" y="-30" as="offset" />
          </mxGeometry>
        </mxCell>
      </root>
    </mxGraphModel>
  </diagram>
</mxfile>
